<?xml version="1.0" ?><!DOCTYPE svg  PUBLIC '-//W3C//DTD SVG 1.1//EN'  'http://www.w3.org/Graphics/SVG/1.1/DTD/svg11.dtd'><svg height="512px" style="enable-background:new 0 0 512 512;" version="1.1" viewBox="0 0 512 512" width="512px" xml:space="preserve" xmlns="http://www.w3.org/2000/svg" xmlns:xlink="http://www.w3.org/1999/xlink"><g id="C_-_38_x2C__hand_x2C__dollar_x2C__money_x2C__currency_x2C__charity"><g><path d="M203.773,72.086c-1.583,0.562-2.817,1.483-3.739,2.772c-0.921,1.291-1.373,2.706-1.373,4.256    c0,1.416,0.412,2.733,1.252,3.956c0.831,1.206,2.125,2.194,3.86,2.935V72.086z"/><path d="M216.472,106.79c0-1.786-0.542-3.337-1.609-4.627c-1.058-1.302-2.802-2.291-5.232-2.991v15.745    c2.019-0.438,3.666-1.399,4.925-2.881C215.84,110.552,216.472,108.807,216.472,106.79z"/><path d="M325.76,248.721c24.779,0,44.939-20.055,44.939-44.706c0-24.653-20.16-44.709-44.939-44.709s-44.939,20.056-44.939,44.709    C280.82,228.666,300.98,248.721,325.76,248.721z M311.376,199.304c-2.448-3.046-3.675-6.724-3.675-11.065    c0-4.394,1.389-8.083,4.15-11.062c2.762-2.993,6.43-4.71,11.025-5.164v-3.952h5.855v3.952c4.281,0.511,7.689,1.966,10.232,4.369    c2.528,2.399,4.152,5.611,4.848,9.634l-10.219,1.318c-0.637-3.158-2.253-5.297-4.861-6.426V196.6    c6.471,1.732,10.879,3.995,13.215,6.757c2.35,2.769,3.52,6.326,3.52,10.662c0,4.848-1.477,8.924-4.424,12.248    c-2.958,3.325-7.053,5.383-12.311,6.206v7.492h-5.855v-7.412c-4.621-0.563-8.367-2.263-11.267-5.134    c-2.901-2.869-4.742-6.933-5.559-12.162l10.477-1.238c0.419,2.144,1.237,3.984,2.416,5.535c1.177,1.551,2.487,2.662,3.933,3.365    v-16.818C317.636,204.603,313.807,202.339,311.376,199.304z"/><path d="M206.658,140.063c24.779,0,44.938-20.057,44.938-44.709c0-24.651-20.159-44.705-44.938-44.705    c-24.78,0-44.94,20.054-44.94,44.705C161.718,120.007,181.878,140.063,206.658,140.063z M192.272,90.647    c-2.447-3.046-3.666-6.729-3.666-11.066c0-4.394,1.38-8.088,4.144-11.066c2.762-2.99,6.437-4.707,11.024-5.16V59.4h5.857v3.955    c4.281,0.506,7.689,1.961,10.233,4.365c2.527,2.404,4.151,5.614,4.854,9.638l-10.224,1.318c-0.631-3.16-2.255-5.301-4.863-6.427    v15.692c6.468,1.729,10.879,3.995,13.212,6.752c2.352,2.773,3.521,6.331,3.521,10.668c0,4.847-1.47,8.922-4.426,12.247    c-2.956,3.32-7.052,5.377-12.308,6.206v7.492h-5.857v-7.412c-4.62-0.564-8.366-2.267-11.267-5.137    c-2.899-2.866-4.741-6.93-5.557-12.159l10.476-1.237c0.429,2.141,1.235,3.982,2.414,5.535c1.188,1.546,2.489,2.66,3.934,3.36    V97.439C198.541,95.944,194.704,93.682,192.272,90.647z"/><path d="M335.574,215.447c0-1.786-0.542-3.332-1.609-4.623c-1.056-1.307-2.802-2.295-5.232-2.994v15.744    c2.012-0.438,3.666-1.399,4.928-2.882C334.936,219.209,335.574,217.468,335.574,215.447z"/><path d="M322.877,180.742c-1.582,0.564-2.82,1.483-3.738,2.774c-0.923,1.29-1.373,2.705-1.373,4.256    c0,1.416,0.412,2.734,1.25,3.955c0.832,1.206,2.123,2.195,3.861,2.939V180.742z"/><path d="M430.943,297.225c-1.908,0-3.689,0.112-5.295,0.333c-25.018,3.448-65.229,21.193-86.506,38.118    c-5.229,7.654-15.941,11.491-32.395,11.491c-15.544,0-36.194-3.412-62.154-10.233l-1.864-0.488    c-2.504-0.65-4.007-3.208-3.356-5.713c0.65-2.504,3.208-4.006,5.712-3.357l1.891,0.495c63.72,16.745,80.363,8.787,84.571,2.342    c0.191-0.438,0.397-0.89,0.62-1.367c1.036-2.228,2.209-4.753,1.872-6.882c-3.95-25.001-71.758-36.246-118.645-36.246    c-11.571,0-21.399,0.683-27.674,1.922c-22.834,4.506-53.826,20.369-73.103,31.161c0,0.001,0.001,0.002,0.002,0.003    c10.272,12.179,25.223,36.275,36.165,55.898c0.009,0.018,0.018,0.033,0.028,0.05c0.465,0.835,0.923,1.662,1.374,2.479    c0.017,0.03,0.034,0.062,0.05,0.092c0.437,0.793,0.867,1.578,1.288,2.352c0.014,0.026,0.029,0.054,0.043,0.08    c0.387,0.713,0.766,1.413,1.139,2.108c0.091,0.169,0.182,0.339,0.272,0.508c0.34,0.634,0.673,1.26,1,1.877    c0.109,0.206,0.216,0.408,0.323,0.612c0.253,0.48,0.501,0.954,0.746,1.423c0.151,0.289,0.3,0.576,0.448,0.862    c0.222,0.427,0.439,0.85,0.652,1.267c0.135,0.262,0.269,0.522,0.399,0.78c0.241,0.475,0.479,0.942,0.709,1.401    c0.14,0.278,0.275,0.552,0.411,0.824c0.142,0.285,0.281,0.565,0.418,0.845c0.205,0.415,0.403,0.822,0.598,1.223    c0.116,0.24,0.231,0.479,0.344,0.714c0.082,0.169,0.17,0.35,0.249,0.515c16.517-6.025,31.029-8.959,44.25-8.959    c17.813,0,31.269,5.323,44.282,10.472c13.518,5.348,27.496,10.878,47.255,10.878c2.76,0,5.619-0.108,8.498-0.322    c16.502-1.224,55.08-17.848,91.732-39.53c43.938-25.991,63.322-46.331,62.74-54.229    C459.186,301.431,442.172,297.225,430.943,297.225z"/><path d="M157.056,218.576c2.588,0,4.686-2.098,4.686-4.686V164.5c0-2.588-2.098-4.686-4.686-4.686    c-2.587,0-4.686,2.098-4.686,4.686v49.39C152.37,216.478,154.469,218.576,157.056,218.576z"/><path d="M182.142,174.375v69.151c0,2.588,2.098,4.686,4.686,4.686c2.588,0,4.686-2.098,4.686-4.686v-69.151    c0-2.588-2.098-4.686-4.686-4.686C184.24,169.69,182.142,171.788,182.142,174.375z"/><path d="M296.002,100.04c2.588,0,4.686-2.098,4.686-4.686V45.963c0-2.588-2.098-4.686-4.686-4.686s-4.686,2.098-4.686,4.686    v49.391C291.316,97.942,293.414,100.04,296.002,100.04z"/><path d="M325.775,129.674c2.588,0,4.686-2.098,4.686-4.686V55.843c0-2.588-2.098-4.686-4.686-4.686    c-2.589,0-4.686,2.097-4.686,4.686v69.146C321.09,127.577,323.187,129.674,325.775,129.674z"/><path d="M416.969,461.352L85.13,461.347c3.546-1.849,7.601-3.928,11.937-6.151c11.893-6.098,26.694-13.687,38.641-20.466    c18.764-10.647,21.314-14.173,21.636-14.771c1.59-3.507,0.645-9.391-2.822-17.463c-1.969-4.584-5.111-10.841-8.927-17.89    c-12.298-22.709-31.604-53.631-41.26-63.196c-0.133-0.131-0.266-0.265-0.396-0.387c-5.834-5.569-9.398-8.053-11.554-8.053    c-0.392,0-1.05,0.067-2.237,0.654c-8.641,4.258-35.564,25.494-38.053,30.704c-0.29,0.605-0.409,0.856,2.614,4.107    c2.593,2.789,6.145,6.61,7.626,12.48c4.252,16.938,1.956,37.341-0.265,57.071c-2.21,19.647-4.298,38.205,0.148,51.223    c0.177,0.517,0.377,1.104,2.333,1.104c0.752,0,1.624-0.118,2.562-0.322c0.722,0.454,1.57,0.727,2.486,0.727l347.37,0.005    c2.588,0,4.686-2.098,4.686-4.686S419.557,461.352,416.969,461.352z M106.804,398.387c5.443-0.614,10.361,3.284,10.976,8.703    c0.62,5.417-3.296,10.31-8.74,10.925c-5.445,0.61-10.363-3.285-10.976-8.702C97.45,403.893,101.359,399.002,106.804,398.387z"/></g></g><g id="Layer_1"/></svg>